<svg id="Layer_1" data-name="Layer 1" xmlns="http://www.w3.org/2000/svg" viewBox="0 0 770.46 684.99"><title>ReezX</title><path d="M563.17,740.21l-329.41-2.8A50.83,50.83,0,0,1,190,711.63L27.68,425a50.83,50.83,0,0,1,.43-50.82L195.24,90.26a50.83,50.83,0,0,1,44.23-25L568.87,68a50.83,50.83,0,0,1,43.8,25.79L775,380.47a50.83,50.83,0,0,1-.43,50.82L607.4,715.17A50.83,50.83,0,0,1,563.17,740.21Z" transform="translate(-16.09 -60.22)" style="fill:#414042"/><path d="M563.17,740.21l-329.41-2.8A50.83,50.83,0,0,1,190,711.63L27.68,425a50.83,50.83,0,0,1,.43-50.82L195.24,90.26a50.83,50.83,0,0,1,44.23-25L568.87,68a50.83,50.83,0,0,1,43.8,25.79L775,380.47a50.83,50.83,0,0,1-.43,50.82L607.4,715.17A50.83,50.83,0,0,1,563.17,740.21Z" transform="translate(-16.09 -60.22)" style="fill:none;stroke:#a7a9ac;stroke-miterlimit:10;stroke-width:10px"/><path d="M190.67,649" transform="translate(-16.09 -60.22)" style="fill:#e4e417"/><polyline points="279.12 515.43 271.15 508.21 275.08 508.73 314.28 532.19 306.1 524.83 310.52 525.67 306.02 520.71 303.89 517.29 279.87 499.63 296.65 508.5 293.85 504.64 296.7 504.45 327.79 522.63 320.07 515.56 296.53 498.21 324.2 514.16 303.63 498.74 295.84 491.63 309.46 498.46 293.07 485.76 296.43 485.9 337.79 510.76 311.51 491.64 316.52 492.86 333.75 502.02 318.15 489.84 317.61 487.45 308.49 479.48 322 486.23 311.91 477.62 317.51 479.22 327.27 483.52 341.22 490.55 348.51 493.25 305.46 463.21 328.99 476.47 335.87 478.9 319.84 466.44 330.62 471.4 317.2 460.64 319.53 460.11 317.96 457.05 322.49 457.95 349.4 473.41 335.19 462.12 350.63 470.12 321.7 449.26 336.3 456.71 338.45 456.07 358.34 466.96 320.12 440.06 345.08 454.26 346.02 452.82 331.4 441.27 340.51 445.15 342.27 444.25 366.4 457.9 350.26 445.36 360.18 449.77 337.33 432.87 355.12 442.39 347.52 435.4 358.34 440.39 362.93 441.33 361.73 438.51 365.36 438.82 341.96 421.56 352.59 426.44 360.54 429.57 356.38 424.83 379.63 437.9 352.14 417.99 382.65 435.78 351.85 413.7 348.22 409.3 375.32 424.88 340.96 400.5 345.08 401.13 372.2 416.73 389.81 426.13 365.97 408.58 364.16 405.36 359.79 400.47 394.73 421.14 393.85 418.52 381.78 408.63 366.34 396.54 375.18 400.24 374.57 397.8 386.09 403.24 388.95 403.05 395.17 405.04 392.11 401 360.75 378.56 372.5 384.15 364.37 376.82 363.53 374.22 397.78 394.44 381.56 381.84 390.35 385.51 409.88 396.15 391.91 380.88 362.92 377.89 401.75 376.2 417.18 374.51 381.84 372.82 382.53 371.13 397.19 369.44 414.52 367.75 370.26 366.06 394.15 364.37 382.35 362.68 381.45 360.99 390.41 359.29 391.32 357.6 360.23 355.9 374.62 354.21 395.69 352.51 405.71 350.82 405.69 331.1 385.83 340.2 384.28 355.99 382.39 330.04 380.81 341.97 379.27 359.35 377.58 357.73 375.91 358.35 373.96 324.73 372.25 320.73 370.99 371.36 369.02 335.86 367.52 357.9 365.87 362.27 364.31 377 362.2 323.98 360.5 320.97 358.94 337.57 350.62 336.45 364.89 356.86 363.47 357.94 352.52 352.18 346.23 349.76 336.17 344.64 340.43 349.8 336.36 348.98 347.73 359.23 349.76 362.79 337.57 356.15 348.24 365.91 345.09 365.75 321.84 351.17 337.39 364.43 325.45 357.96 335.94 367.59 340.67 373.08 340.01 374.71 337.26 374.83 353.41 388.51 353.19 390.45 323.98 371.6 338.64 384.21 346.14 391.69 345.29 393.17 342.82 393.5 315.38 375.91 343.27 398.01 308.25 374.99 334.57 395.96 319.06 386.94 348.27 409.99 325.95 396.08 312.43 388.48 302.47 383.44 302.6 385.64 317.99 398.78 319.99 402.32 320.74 404.96 338.86 420.06 306.71 399.1 334.17 420.9 329.8 419.87 306.7 405.4 306.65 407.46 323.63 421.74 292.97 401.85 294.35 404.93 316.78 423.12 306.46 417.82 312.23 424.06 304.74 420.79 289.66 412.08 323.93 438.76 282.67 411.27 324.18 443.15 315.59 439.09 319.64 444.11 289.95 424.91 300.21 434.37 313.92 446.31 277.04 421.96 279.3 425.68 296.8 440.34 293.84 440.31 313.9 456.81 312.93 458.21 295.14 447.56 283.06 441 310.95 463.11 284.01 445.89 295.94 456.56 307.73 467.12 276.29 446.67 306.85 470.69 288.69 459.77 297.78 468.4 295.37 468.77 263.6 448.09 258.63 446.63 252.66 444.46 298.6 479.51 260.54 454.32 281.94 471.77 250.68 451.45 290.38 482.04 280.27 476.89 249.64 457.03 249 458.67 253.23 463.82 249.57 463.29 288.66 493.43 275.75 486.26 273.98 487.09 263.77 481.88 257.17 479.25 282.45 499.49 251.04 479.06 247.88 478.9 255.21 486.26 258.35 490.62 263.34 496.3 250.19 488.98 236.9 481.56 262.55 502.06 232.3 482.47 260.43 504.75 228.86 484.22 248.33 500.3 248.46 502.5 263.28 515.23 259.23 514.44 256.94 514.91 242.81 506.88 243.94 509.81 241.41 510.1 224.6 500.15 228.68 505.19 225.94 505.34 226.07 507.54 222.69 507.23 230.94 515.26 251.79 532.33 247.17 531.13 229.38 520.5 255.26 541.18" style="fill:#f9ed32"/><path d="M625,496.67" transform="translate(-16.09 -60.22)" style="fill:#63bc46"/><polyline points="492.09 180.24 483.9 176.94 480.53 176.79 473.96 174.55 474.55 176.97 481.15 183.3 490.88 191.66 471.25 180.94 486.69 193.02 460.38 177.94 487.17 197.41 465.1 185.09 481.96 198.11 474.2 195.1 479.45 200.56 457.73 188.47 466.3 196.09 473.15 202.59 452.48 191.18 478.61 210.21 454.1 196.31 464.26 204.96 461.16 204.98 468.12 211.54 466.92 212.8 456.5 208.06 460.01 212.38 454.1 210.58 446.84 207.9 443.94 208.06 452.43 215.62 455.85 219.89 442.36 213.16 457.04 224.75 442.18 217.13 447.57 222.68 438.73 218.97 432.81 217.16 448.98 229.71 433.41 221.63 455.17 237.82 434.45 226.38 453.12 240.57 436.74 231.96 428.21 228.46 441.66 239.25 442.96 242.14 426.46 233.45 444.62 247.31 448.13 251.63 430.05 241.91 424.02 240.04 431.36 246.85 440.42 254.79 429.05 249.44 431.69 253.2 424.91 250.84 435.8 259.96 414.64 248.25 425.68 257.47 439.28 268.36 418.04 256.59 428.92 265.71 437.14 273.1 407.63 255.96 407.57 257.96 410.1 261.65 405.7 260.82 423.27 274.29 416.66 272.03 416.41 273.91 416.82 276.22 401.41 268.25 408.4 274.83 403.82 273.9 419.37 286.05 417.24 286.71 422.22 291.99 408.23 284.94 417.2 292.82 400.5 284 395.88 283.05 408.39 293.23 407.41 294.63 412.49 299.99 406.06 297.85 396.47 293.66 412.1 305.88 391.81 294.73 386.57 293.37 403.37 306.35 405.73 309.93 388.7 300.9 399.43 309.93 387.81 304.42 396.59 312.18 380.34 303.66 400.04 318.53 383.63 309.9 376.38 307.25 392.64 319.88 396.36 321.28 371.11 320.34 400.2 322.03 374.83 323.72 379.55 325.41 404.1 327.1 403.44 328.79 375 330.48 377.11 332.18 379.76 333.87 404.12 335.55 399.66 337.25 376.03 338.94 373.21 340.63 385.39 342.33 385.22 344.02 391.24 345.72 404.46 347.42 383.75 352.92 389.21 343.57 390.99 356.09 392.71 361.84 394.3 350.3 396.04 357.93 397.77 365.46 399.41 360.53 401.11 362.41 402.72 354.8 404.43 359.22 405.9 332.7 407.64 340.53 409.37 347.15 411.17 361.7 412.77 352.01 414.3 332.26 415.99 333.49 411.2 336.21 417.46 346.53 416.82 343.98 425.19 347.88 423.46 344.55 412.08 334.29 435.26 348.82 426.13 340.17 419.41 333.25 430.32 338.97 440.98 344.52 440.41 342.01 422.5 327.05 443.43 339.97 439.4 334.98 446.62 338.05 440.42 331.51 435.63 325.97 427.7 318.19 429.37 317.28 431.96 317.05 450.15 328 429.04 310.75 432.68 311.27 440.84 315.03 456.24 323.98 440.69 310.73 444.6 311.44 448.86 312.4 439.22 303.38 445.04 305.46 450.86 307.54 460.64 312.45 445.23 299.3 446.72 298.27 439.26 290.82 462.7 305.53 440.73 287.66 456.71 297.02 464.42 300.44 455.55 291.98 460.06 293.11 472.35 299.83 468.8 295.18 458.03 285.35 473.36 294.25 459.59 282.28 454.81 276.75 454.68 274.55 476.52 288.12 471.9 282.7 475.56 283.23 470.41 277.44 463.68 270.51 484.4 283.27 468.49 269.75 486.5 280.56 470.3 266.84 477.11 269.61 483.57 272.14 467.92 258.81 489.82 272.42 488.12 269.1 474.53 257.25 472.63 253.79 480.53 257.35 486.46 259.5 489.96 259.91 485.45 254.57 493.84 258.48 498.25 259.54 489.8 251.37 488.87 248.6 484.46 243.34 493.64 247.82 481.49 237 499.07 247.5 489.82 238.76 496.88 241.72 486.59 232.23 509.29 246.41 511 245.53 512.35 244.39 490.05 226.29 496.25 228.63 497.28 227.27 500.79 227.68 510.58 232.59 517.57 235.5 508.22 226.69 512.01 227.31 516.38 228.34 514.06 224.57 513.93 222.39 523.82 227.38 524.32 225.63 500.57 206.49 506.81 208.86 521.08 216.99 521.46 215.15 531.27 220.09 527.59 215.34 507.4 198.76 518.1 204.33 524.08 206.5 509.06 193.62 527.1 204.46 514.26 193.15 527.95 200.85 538.76 206.5 532.42 199.84 517.41 186.97 519.6 186.43 530.97 192.47 544.33 199.94 535.99 191.85 541.46 193.66 536.96 188.32 542.86 190.45 544.02 189.17 524.04 172.73 541.18 182.91 535.15 176.47 540.93 178.5 547.8 181.31 544.65 176.93 550.74 179.17" style="fill:#1c75bc"/><polyline points="307.16 164.56 287.75 179.64 283.21 185.05 299.29 177.04 286.52 187.79 285.11 191.16 313.23 175.32 312.12 178.49 311.47 181.37 304.06 188.64 320.53 180.38 311.3 188.83 293.47 202.88 295.19 204.22 319.41 190.93 306.43 201.82 319.61 195.71 328.38 192.46 306.92 208.87 319.42 203.19 321.21 204.48 303.6 218.38 324.47 207.26 319.84 212.73 309.15 222.13 327.56 212.61 309.84 226.6 330.81 215.42 323.24 222.8 316.45 229.67 319.13 230.38 342.2 217.83 327.27 230 314.92 240.48 322.78 237.83 331.68 234.49 330.01 238.03 318.57 247.94 349.31 230.4 321.73 250.8 348.68 235.72 345.2 240.44 342.65 244.56 352.17 240.82 333.26 255.58 351.48 246.19 344.89 252.93 361.38 244.66 348.13 255.74 351.91 255.74 338.11 267.18 341.01 267.75 352.36 262.82 336.56 275.55 356.96 264.75 368.99 259.38 360.7 267.23 344.69 280.1 367.49 267.72 367.95 269.87 359.07 278.1 355.28 283.02 362.25 280.95 358.82 285.64 368.11 282.06 351.73 295.16 361.01 291.59 377.15 283.55 384.48 281.25 383.4 284.4 379.11 289.66 368.78 298.84 367.19 302.33 366.41 305.3 376.23 301.38 365.24 310.99 386.99 299.3 385.09 303 377.05 310.69 381.58 310.21 393.71 304.79 394.8 306.54 388.34 313.21 401.72 306.98 401.45 314.49 375.81 320.68 400.69 322.71 373.98 324.74 402.61 326.76 369.48 328.8 384.68 330.83 386.32 332.86 399.59 334.89 402.48 336.92 378.13 338.94 391.68 340.98 395.16 343.01 396.64 345.04 375.76 347.08 391.57 353.09 385.61 343.62 383.62 340.28 381.49 355.14 379.41 363.2 377.47 354.67 375.53 345.04 373.37 363.07 371.49 346.32 369.61 330.24 367.47 345.79 365.38 354.37 363.33 358.33 361.38 350.49 359.53 330.02 363 338.06 347.89 353.15 369.36 335.23 355.08 342.96 346.21 346.81 365.35 330.56 351.64 337.88 358.29 330.6 353.23 331.71 335.49 341.92 356.94 324.02 351.91 325.11 352.4 322.24 328.11 337.14 349.54 319.25 340.76 323.02 348.73 314.79 335.02 322.1 328.86 323.99 344.54 310.22 319.86 325.4 338.86 309.25 330.07 313.03 331.18 309.72 339.24 301.42 314.66 316.54 313.54 314.82 339.28 293.84 328.76 298.87 327.84 297.01 314.84 303.81 318.21 298.87 306.77 304.55 312.18 298.15 301.27 303.45 327.95 281.79 318.64 285.94 318.72 283.36 326.19 275.48 313.3 282.2 319.4 275.31 317.12 274.43 301.52 283.09 314.39 271.34 293.83 283.56 309.06 270.11 293.62 278.67 296.66 273.96 287.58 277.95 306.02 262.19 286.41 273.74 305.39 257.6 289.38 266.56 303.38 254 285.43 264.35 284.75 262.31 296.82 251.13 273.65 265.22 302.89 241.72 297.89 242.78 286.2 248.64 279.76 250.74 281.69 246.83 268.43 253.81 293.38 233.39 291.68 232.08 282.84 235.89 262.17 248.2 263.38 244.8 277.97 231.81 272.59 233.15 272.61 230.6 283.62 220.18 281.16 219.42 272.92 222.8 278 216.62 262.28 225.38 264.03 221.59 274.55 211.53 255.19 222.89 262.86 214.87 251.57 220.44 268.22 205.97 259.06 210.02 242.77 219.18 241.84 217.31 263.9 198.97 252.95 204.29 249.98 203.89 253.66 198.72 245.98 201.71 238.01 204.89 233.58 205.54 235.43 201.68 247.79 190.28 241.28 192.42 239.8 190.96 234.22 192.44 242.43 184.01 240.04 183.19 243.51 178.17 235.87 181.11 221.52 188.88 240.93 172.42 229.91 177.78 232.01 173.73" style="fill:#39b54a"/><path d="M483.94,594c-0.42-.65,13.29-9.57,12.87-10.22s6.88-5.4,6.46-6.06,1.81-2.1,1.38-2.75-13.22,7.67-13.64,7-7.41,3.89-7.84,3.24,18-12.66,17.62-13.31-7.54,4-8,3.33,7.59-5.86,7.16-6.51,3-2.88,2.58-3.53-10.5,5.9-10.92,5.25,0.79-1.44.37-2.09-4.38,1.92-4.8,1.27,12.25-8.89,11.83-9.54-16.11,9.55-16.53,8.9-2.67.81-3.09,0.16-8.43,4.55-8.85,3.9,23.79-16.4,23.36-17.05,1.25-1.74.83-2.4-20.87,12.64-21.29,12,16.31-11.54,15.89-12.19-8.12,4.35-8.54,3.7,4.3-3.72,3.87-4.38-5.49,2.64-5.92,2,9.36-7,8.94-7.67,1.29-1.77.86-2.42-25.6,15.72-26,15.07S490,540.86,489.6,540.21,467,554,466.62,553.3s5.35-4.41,4.93-5.06-12.77,7.38-13.19,6.73,12-8.72,11.55-9.37-13,7.5-13.38,6.85,13.53-9.73,13.1-10.38,1.17-1.69.74-2.34,8.7-6.59,8.28-7.24-10.11,5.65-10.53,5-7.38,3.87-7.8,3.22-1.9.31-2.33-.34,16.5-11.66,16.08-12.32,2.71-2.69,2.28-3.34-11.76,6.72-12.19,6.07-7.76,4.11-8.18,3.46,13-9.37,12.56-10-20.62,12.48-21,11.83,26.44-18.13,26-18.78-15.24,9-15.66,8.33-8.26,4.45-8.69,3.79,15.16-10.79,14.74-11.44,6.48-5.15,6.06-5.8,0.72-1.4.3-2.05S440.46,528.52,440,527.87s14.17-10.14,13.74-10.8,2.21-2.37,1.79-3-9.41,5.19-9.84,4.54,1.52-1.92,1.1-2.57-8,4.29-8.45,3.64,0-.9-0.47-1.55-1.1-.21-1.53-0.87,16.39-11.59,16-12.24-3.19,1.15-3.62.49-6.61,3.37-7,2.72-2.21.51-2.64-.14,1.81-2.11,1.38-2.76-6.94,3.58-7.37,2.93-4.56,2-5,1.38,24.75-17,24.33-17.68S440,499,439.6,498.4s-8.23,4.42-8.65,3.77,0.55-1.29.12-1.94,22.14-15.33,21.71-16-7.31,3.82-7.73,3.17,3-2.88,2.57-3.53-10.4,5.84-10.83,5.18-11.66,6.66-12.09,6,23.14-16,22.71-16.63-23.62,14.43-24,13.78,11-8.07,10.56-8.72-14.08,8.23-14.5,7.58,7.79-6,7.37-6.65S441.42,474,441,473.33s-13.64,7.94-14.07,7.29-4.28,1.85-4.71,1.2,0.22-1.07-.21-1.73-9,4.93-9.43,4.27,14-10,13.55-10.67-9.91,5.51-10.33,4.86,0.1-1-.33-1.65,9.17-6.9,8.74-7.55-10,5.55-10.39,4.9,7.46-5.78,7-6.44-10.71,6-11.14,5.38,8.23-6.28,7.81-6.94,1.23-1.73.81-2.39,9.75-7.27,9.33-7.93-20.78,12.58-21.2,11.93,10.37-7.67,9.94-8.33,13.14-9.48,12.71-10.14-14.88,8.74-15.3,8.09,14.13-10.12,13.7-10.78-5.58,2.7-6,2-17.82,10.66-18.25,10,18.46-12.94,18-13.59-14,8.18-14.44,7.53,5.37-4.43,4.94-5.08,10.34-7.66,9.91-8.31-6.6,3.36-7,2.7,4.25-3.7,3.82-4.35-14.15,8.27-14.57,7.61,13.95-10,13.52-10.67-20.56,12.44-21,11.78-9.25-.92-9.47-1.68,33.73-5.7,33.73-6.5-29.32-.8-29.32-1.6,25.87-.8,25.87-1.6-1-.8-1-1.6,3.37-.8,3.37-1.6-23.29-.8-23.29-1.6-0.1-.8-0.1-1.6-2-.8-2-1.6-7.64-.8-7.64-1.6,25.56-.8,25.56-1.6-5-.8-5-1.6,12.14-.8,12.14-1.6-28.34-.8-28.34-1.6,6.33-.8,6.33-1.6-5.63-.8-5.63-1.61,14.76-.8,14.76-1.6-19.55-.8-19.55-1.61,7.8-.81,7.8-1.61,15.36,5.78,15.93,5.21-6-8.48-5.25-8.47,0.9-12.93,1.69-12.92,0.55,30.77,1.34,30.78,0.86-7.87,1.65-7.86,0.73,7.55,1.53,7.55,0.83-4.68,1.63-4.67,0.81-1.55,1.6-1.54,1-20.48,1.75-20.48S417.05,425,417.85,425s0.83-4.34,1.62-4.33,0.8-1.38,1.6-1.37,0.74,7,1.54,7,0.91-14.3,1.7-14.29,0.84-5.09,1.63-5.08,0.91-14.19,1.71-14.19,0.67,15.52,1.47,15.53S430,394,430.82,394s0.75,5.47,1.55,5.47,2.49,6.43,3.2,6.79-2.87,5.11-2.42,5.74-6,5.26-5.55,5.89,16.13-10.61,16.58-10,1.84-.37,2.3.26-5.77,5.09-5.32,5.72,2.78-1,3.23-.41-0.4,1.24.05,1.87-13.15,10.39-12.7,11-2.33,2.63-1.88,3.26,5.9-3.28,6.35-2.65,7.27-4.26,7.72-3.63-6,5.29-5.58,5.92-0.49,1.31,0,1.94,1.56-.16,2,0.47,15.45-10.13,15.91-9.5-14.11,11.08-13.65,11.71,0.37,0.69.82,1.33-6.22,5.42-5.76,6.05,21.25-14.28,21.7-13.65,6.22-3.5,6.67-2.87-7.63,6.44-7.18,7.07,3.12-1.28,3.57-.64S449.65,441.33,450.11,442s9.47-5.83,9.92-5.2-4,3.85-3.57,4.48-5.24,4.72-4.78,5.35,9.07-5.54,9.52-4.91-13.32,10.52-12.87,11.15,17-11.22,17.43-10.59,7.1-4.13,7.55-3.5-0.06,1,.4,1.63-18.65,14.34-18.2,15,20.17-13.51,20.63-12.88-10.26,8.32-9.81,8.95-7.9,6.62-7.45,7.26,21-14.14,21.5-13.51-12,9.57-11.55,10.2,6.89-4,7.34-3.35,5.39-2.91,5.84-2.27-10.42,8.43-10,9.07-11.25,9-10.8,9.66-0.32,1.18.14,1.82,9.68-6,10.14-5.36,9.66-6,10.12-5.34-21.44,16.34-21,17S482,462.18,482.5,462.82s-8.09,6.76-7.64,7.4S488.53,461.37,489,462s-21.54,16.41-21.09,17,24.28-16.46,24.74-15.82-5,4.53-4.52,5.16-10.39,8.42-9.94,9.05,6.66-3.82,7.12-3.19-2.23,2.56-1.78,3.19-3.51,3.48-3.05,4.11,10.16-6.33,10.61-5.69,6.18-3.48,6.64-2.84-5.12,4.63-4.67,5.27S473.88,493,474.33,493.63s12.36-7.91,12.82-7.28,7.79-4.63,8.24-4-13.26,10.47-12.81,11.11,16.53-10.9,17-10.26-16.15,12.55-15.7,13.18-5.56,4.95-5.1,5.58,28.5-19.48,29-18.85-24.81,18.75-24.35,19.39,7.25-4.24,7.71-3.6-6,5.3-5.59,5.93,16.54-10.9,17-10.27-6.77,5.82-6.32,6.45,16-10.51,16.45-9.88-19.41,14.88-19,15.52,8.08-4.84,8.54-4.2-4.78,4.39-4.32,5,3.11-1.27,3.57-.64-2.28,2.59-1.82,3.23,10.16-6.33,10.62-5.69-18.61,14.31-18.15,14.94,20.22-13.54,20.67-12.91-3.7,3.61-3.24,4.25,8.52-5.15,9-4.51,0.28,0.76.73,1.4-8.28,6.9-7.82,7.53,1.85-.36,2.3.27,3.44-1.5,3.89-.87-10.48,8.48-10,9.11,0,0.94.49,1.57,18.76-12.5,19.22-11.86-8.44,7-8,7.65-17.09,13.22-16.64,13.86,6.15-3.45,6.61-2.82-2,2.41-1.56,3,4.88-2.54,5.33-1.9,6.21-3.49,6.66-2.86,5.42-2.93,5.88-2.29-6.5,5.62-6,6.26,2.5-.83,3-0.2-11.88,9.49-11.43,10.12,12.84-8.25,13.3-7.61,2.35-.73,2.8-0.09,13.12-8.46,13.58-7.82-16.43,12.74-16,13.37-11,8.83-10.51,9.46,14.93-9.75,15.39-9.12,8.45-5.1,8.9-4.47,3.61-1.63,4.06-1-10,8.16-9.59,8.8-0.26,1.15.2,1.79-8.59,7.12-8.13,7.76,7.07-4.11,7.52-3.47-7.92,6.64-7.46,7.27,5.15-2.74,5.61-2.1,9-5.47,9.42-4.83,7.73-4.58,8.19-3.95-8.51,7.07-8.06,7.71-12.14,9.67-11.68,10.31-0.28,1.16.17,1.8,20.83-14,21.29-13.35,0.57,0.55,1,1.19-19.51,15-19.05,15.59,17.71-11.74,18.17-11.11,3.06-1.23,3.51-.59-3.76,3.66-3.3,4.3,7.36-4.32,7.82-3.68-2.78,3-2.32,3.6-2.49,2.75-2,3.38-12.18,9.7-11.72,10.34,17-11.22,17.45-10.59,1.1,0.18,1.55.81S539.5,584.37,540,585s0.61,0.53,1.07,1.16,14.16-9.19,14.61-8.55,3.11-1.26,3.56-.62,7.66-4.53,8.11-3.89,0,0.94.5,1.57,0.94,0.3,1.4.94,3.21-1.34,3.67-.7" transform="translate(-16.09 -60.22)" style="fill:#e60581"/></svg>